# xmcd CD database file
#
# Track frame offsets:
#	150
#	11146
#	25418
#	38972
#	53586
#	59442
#	76764
#	84569
#	97835
#	110024
#	126837
#	133526
#	148504
#	163370
#	182157
#	191201
#
# Disc length: 2694 seconds
#
# Revision: 0
# Processed by: cddbd v1.5.1PL0 Copyright (c) Steve Scherf et al.
# Submitted via: CDex 1.50beta10
#
DISCID=dd0a8410
DTITLE=Barrelhouse Chuck With Erwin Helfer - Prescription For The Blues
DYEAR=2002
DGENRE=Blues
TTITLE0=Sitting On Top Of The World
TTITLE1=My Own Lonesome Blues
TTITLE2=Mean Mistreater Mama
TTITLE3=Tin Pan Alley
TTITLE4=Double D
TTITLE5=Prescription For The Blues
TTITLE6=Going Back To Memphis
TTITLE7=Ain't Times Hard
TTITLE8=Corrine, Corrina
TTITLE9=Straight Alky Blues
TTITLE10=Nutty Boogie
TTITLE11=Johnson Machine Gun
TTITLE12=Barrelhouse Woman
TTITLE13=Ain't Nobody's Business
TTITLE14=Yamato Stomp
TTITLE15=Rooster's Blues
EXTD=YEAR: 2002
EXTT0=
EXTT1=
EXTT2=
EXTT3=
EXTT4=
EXTT5=
EXTT6=
EXTT7=
EXTT8=
EXTT9=
EXTT10=
EXTT11=
EXTT12=
EXTT13=
EXTT14=
EXTT15=
PLAYORDER=
